<?xml version="1.0" standalone="no"?>
<!DOCTYPE svg PUBLIC "-//W3C//DTD SVG 20010904//EN"
 "http://www.w3.org/TR/2001/REC-SVG-20010904/DTD/svg10.dtd">
<svg version="1.0" xmlns="http://www.w3.org/2000/svg"
 width="50.000000pt" height="50.000000pt" viewBox="0 0 64.000000 64.000000"
 preserveAspectRatio="xMidYMid meet">

<g transform="translate(0.000000,64.000000) scale(0.100000,-0.100000)"
fill="#000000" stroke="none">
<path d="M78 518 c-10 -26 4 -38 42 -38 30 0 40 5 45 20 7 21 20 26 29 12 3
-5 16 -59 30 -122 15 -62 31 -119 37 -127 9 -10 44 -13 138 -13 69 0 132 4
139 8 16 11 56 148 48 168 -3 9 -20 14 -46 14 -35 0 -40 3 -40 23 0 44 -59 74
-88 45 -9 -9 -15 -9 -24 0 -30 30 -95 -8 -86 -49 2 -10 -8 -14 -36 -14 -37 0
-40 2 -50 40 l-12 40 -61 3 c-43 2 -62 -1 -65 -10z m72 -14 c0 -11 -8 -14 -27
-12 -39 4 -42 28 -4 28 21 0 31 -5 31 -16z m234 -16 l15 -21 20 24 c16 20 23
22 38 13 32 -19 28 -62 -8 -100 -18 -19 -41 -34 -50 -34 -23 0 -79 66 -79 93
0 46 39 61 64 25z m-48 -89 c46 -49 60 -53 97 -30 18 11 38 29 45 40 9 16 23
21 53 21 l42 0 -7 -47 c-3 -26 -14 -63 -24 -82 l-17 -36 -113 -3 c-61 -1 -120
2 -130 7 -12 6 -23 31 -31 68 -7 32 -15 66 -17 76 -5 14 1 17 33 17 31 0 46
-7 69 -31z"/>
<path d="M353 293 c26 -2 68 -2 95 0 26 2 4 3 -48 3 -52 0 -74 -1 -47 -3z"/>
<path d="M260 171 c-14 -27 -13 -37 6 -55 21 -22 51 -20 71 4 24 27 80 27 109
-1 43 -40 101 0 74 51 -14 27 -65 27 -80 0 -15 -28 -85 -28 -100 0 -14 27 -65
27 -80 1z m60 -6 c7 -8 10 -22 6 -30 -7 -19 -45 -19 -52 0 -6 15 11 45 26 45
4 0 13 -7 20 -15z m180 0 c7 -8 10 -22 6 -30 -7 -19 -45 -19 -52 0 -6 15 11
45 26 45 4 0 13 -7 20 -15z"/>
</g>
</svg>
