<?xml version="1.0" standalone="no"?>
<!DOCTYPE svg PUBLIC "-//W3C//DTD SVG 20010904//EN"
 "http://www.w3.org/TR/2001/REC-SVG-20010904/DTD/svg10.dtd">
<svg version="1.0" xmlns="http://www.w3.org/2000/svg"
 width="64.000000pt" height="64.000000pt" viewBox="0 0 64.000000 64.000000"
 preserveAspectRatio="xMidYMid meet">

<g transform="translate(0.000000,64.000000) scale(0.100000,-0.100000)"
fill="#000000" stroke="none">
<path d="M530 571 c-24 -19 -24 -20 -6 -40 18 -20 20 -20 38 -5 22 20 25 42 3
24 -21 -17 -32 -4 -17 20 15 24 13 24 -18 1z"/>
<path d="M160 556 c-28 -10 -36 -18 -38 -43 -2 -21 -10 -33 -23 -36 -28 -7
-23 -52 6 -52 17 0 20 8 23 53 3 50 5 54 37 68 46 19 45 19 45 -21 0 -28 -4
-35 -19 -35 -26 0 -36 -31 -15 -47 29 -21 44 2 44 68 0 64 -2 66 -60 45z"/>
<path d="M312 556 c1 -10 8 -17 13 -17 15 1 12 24 -3 29 -9 3 -13 -2 -10 -12z"/>
<path d="M496 522 c-3 -6 1 -15 8 -21 8 -7 17 -8 20 -3 3 6 -1 15 -8 21 -8 7
-17 8 -20 3z"/>
<path d="M466 491 c-3 -5 1 -14 8 -20 16 -13 32 2 21 19 -8 12 -22 13 -29 1z"/>
<path d="M436 461 c-3 -5 1 -14 8 -20 16 -13 32 2 21 19 -8 12 -22 13 -29 1z"/>
<path d="M404 429 c-10 -17 13 -36 27 -22 12 12 4 33 -11 33 -5 0 -12 -5 -16
-11z"/>
<path d="M280 417 c-14 -8 -38 -26 -52 -40 -15 -15 -37 -27 -50 -27 -34 0 -85
-35 -104 -71 -24 -46 -15 -131 17 -165 53 -57 127 -70 187 -34 37 23 72 75 72
108 0 14 15 37 35 56 29 28 35 40 35 75 0 22 -3 41 -8 41 -4 0 -41 -34 -82
-75 l-74 -75 -23 22 -24 22 78 78 c63 64 75 80 63 88 -21 13 -40 12 -70 -3z
m-91 -96 c-73 -23 -105 -68 -95 -133 4 -26 3 -37 -4 -33 -5 3 -10 28 -10 55 0
41 5 54 34 84 26 28 41 36 67 35 32 -1 32 -1 8 -8z m5 -173 c14 -22 -12 -52
-37 -42 -17 6 -23 44 -10 58 11 11 35 3 47 -16z m76 7 c10 -12 10 -18 0 -29
-14 -18 -40 -10 -40 13 0 32 20 40 40 16z"/>
<path d="M152 138 c5 -15 28 -18 29 -3 0 6 -7 12 -17 13 -10 3 -15 -1 -12 -10z"/>
<path d="M240 140 c0 -5 5 -10 10 -10 6 0 10 5 10 10 0 6 -4 10 -10 10 -5 0
-10 -4 -10 -10z"/>
<path d="M375 400 c-10 -17 12 -37 25 -24 8 8 6 15 -4 23 -10 9 -16 9 -21 1z"/>
<path d="M345 370 c-10 -17 12 -37 25 -24 8 8 6 15 -4 23 -10 9 -16 9 -21 1z"/>
<path d="M315 340 c-10 -17 12 -37 25 -24 8 8 6 15 -4 23 -10 9 -16 9 -21 1z"/>
<path d="M285 310 c-7 -12 2 -30 16 -30 12 0 12 27 0 35 -5 3 -12 1 -16 -5z"/>
<path d="M246 272 c-12 -14 -13 -21 -4 -30 13 -13 38 2 38 24 0 22 -16 25 -34
6z"/>
<path d="M489 234 c-17 -21 0 -49 32 -49 18 0 25 6 27 24 6 38 -34 55 -59 25z"/>
</g>
</svg>
