<?xml version="1.0" standalone="no"?>
<!DOCTYPE svg PUBLIC "-//W3C//DTD SVG 20010904//EN"
 "http://www.w3.org/TR/2001/REC-SVG-20010904/DTD/svg10.dtd">
<svg version="1.0" xmlns="http://www.w3.org/2000/svg"
 width="120px" height="75px" viewBox="0 0 623.000000 314.000000"
 preserveAspectRatio="xMidYMid meet">

<g transform="translate(0.000000,314.000000) scale(0.100000,-0.100000)"
fill="#000000" stroke="none">
<path d="M0 1585 l0 -1555 3115 0 3115 0 0 1555 0 1555 -3115 0 -3115 0 0
-1555z m4220 810 c13 -16 6 -35 -15 -35 -18 0 -28 17 -21 35 7 19 20 19 36 0z
m88 -47 c31 -31 0 -98 -45 -98 -20 0 -29 -10 -49 -57 -36 -85 -38 -88 -68 -85
-22 3 -60 -29 -251 -213 -124 -120 -225 -222 -225 -229 0 -6 7 -19 15 -30 8
-10 17 -38 21 -62 12 -84 -52 -166 -131 -166 -60 0 -102 20 -114 54 -16 46
-14 48 24 32 78 -32 135 -9 135 55 0 30 -9 44 -61 93 -50 48 -66 58 -95 58
-101 0 -119 -82 -54 -245 61 -154 74 -258 41 -344 -55 -146 -188 -206 -336
-150 -121 45 -243 201 -253 324 -12 152 116 292 277 302 36 2 72 0 79 -5 8 -5
16 -27 19 -49 l5 -40 -48 4 c-99 10 -187 -38 -225 -122 -26 -56 -24 -90 10
-160 34 -72 108 -145 174 -170 114 -43 213 24 224 155 5 46 -18 131 -71 275
-31 85 -34 163 -7 221 45 99 179 130 274 62 l28 -20 196 189 c131 126 200 199
205 219 6 21 42 55 125 122 117 92 153 108 181 80z m-153 -8 c4 -6 1 -18 -6
-26 -11 -13 -14 -13 -27 0 -8 8 -11 19 -8 25 9 14 33 14 41 1z m-67 -63 c4
-21 -27 -35 -38 -17 -12 19 0 42 19 38 9 -2 17 -11 19 -21z m-68 -42 c15 -18
5 -35 -21 -35 -12 0 -19 7 -19 18 0 33 20 42 40 17z m-2270 -787 c30 -33 25
-48 -16 -48 -56 0 -74 -15 -74 -60 0 -32 4 -39 22 -42 32 -4 34 -34 4 -61 -25
-24 -26 -28 -26 -151 0 -141 -8 -157 -58 -119 -26 19 -27 24 -32 138 -5 114
-6 118 -27 120 -13 1 -25 4 -28 6 -11 11 9 47 31 58 19 8 24 18 24 47 0 48 26
101 59 119 40 22 97 19 121 -7z m1005 -83 c14 -13 25 -33 25 -45 0 -15 6 -20
24 -20 14 0 28 -5 31 -10 11 -18 -6 -51 -31 -60 -24 -10 -25 -12 -22 -107 l3
-98 48 -3 c34 -2 47 -7 47 -18 0 -24 -47 -64 -75 -64 -37 0 -92 25 -104 48 -6
12 -11 68 -11 126 0 103 -1 106 -22 106 -13 0 -29 4 -37 9 -12 8 -12 13 2 34
9 14 26 28 37 32 16 5 20 15 20 51 0 38 3 44 20 44 12 0 32 -11 45 -25z m883
-2 c6 -9 12 -27 12 -40 0 -18 6 -23 24 -23 14 0 28 -5 31 -10 11 -18 -6 -51
-31 -60 -24 -10 -25 -12 -22 -107 l3 -98 48 -3 c53 -3 58 -15 26 -56 -31 -39
-102 -33 -149 14 -18 18 -20 33 -20 129 l0 110 -27 3 c-42 5 -44 43 -4 66 27
15 31 22 31 61 l0 44 33 -7 c17 -3 38 -14 45 -23z m-1438 -82 c77 -39 106
-170 57 -255 -26 -47 -93 -86 -146 -86 -46 0 -119 36 -145 73 -31 42 -35 151
-8 204 44 85 147 112 242 64z m332 19 c69 -20 78 -43 78 -206 0 -157 -3 -163
-54 -123 -25 20 -26 25 -26 118 0 71 -4 102 -16 119 -19 28 -63 29 -97 2 -25
-20 -26 -25 -29 -138 l-3 -117 -25 3 c-52 5 -60 31 -60 188 l0 144 27 0 c14 0
35 -7 45 -17 17 -15 19 -15 37 1 15 14 54 31 81 35 3 1 22 -4 42 -9z m-748
-15 c28 -14 36 -14 60 -1 33 17 62 11 81 -17 22 -31 19 -35 -22 -39 -61 -5
-77 -38 -81 -169 -2 -62 -8 -109 -14 -109 -14 0 -52 21 -60 34 -9 13 -11 316
-2 316 3 0 20 -7 38 -15z m2195 -3 c55 -27 75 -63 79 -140 5 -83 -12 -129 -62
-167 -47 -36 -110 -43 -161 -19 -65 30 -103 121 -71 169 16 24 21 25 111 25
106 0 117 9 69 57 -25 24 -30 25 -105 20 -78 -5 -80 -5 -73 16 14 47 33 57
108 57 48 0 82 -6 105 -18z m312 3 c21 -12 34 -13 48 -5 11 5 29 10 40 10 21
0 21 -5 21 -200 0 -225 -4 -242 -66 -281 -26 -16 -57 -23 -108 -27 -62 -4 -75
-1 -98 18 -16 12 -28 30 -28 41 0 18 5 19 68 13 53 -4 74 -2 102 13 31 16 35
23 38 61 l3 43 -32 -17 c-39 -20 -101 -14 -138 13 -89 66 -82 256 12 313 38
24 97 26 138 5z m367 -5 c37 -23 62 -72 62 -123 0 -50 -13 -57 -116 -57 -54 0
-96 -4 -99 -10 -11 -18 23 -58 59 -70 24 -8 51 -8 88 -1 29 5 55 7 57 5 11
-10 -16 -60 -39 -72 -34 -18 -140 -10 -182 15 -43 24 -78 93 -78 153 0 59 35
128 79 157 45 30 122 31 169 3z m-1574 -393 c8 -14 8 -20 -4 -27 -12 -8 -13
-12 -2 -19 8 -4 12 -21 10 -37 -3 -25 -7 -29 -33 -29 -23 0 -31 5 -33 23 -2
12 2 22 8 22 7 0 5 8 -4 22 -20 28 -20 33 0 53 20 19 43 16 58 -8z m757 13
c11 -6 19 -21 19 -37 0 -20 -4 -24 -20 -20 -13 3 -20 0 -20 -9 0 -9 8 -14 18
-12 12 2 17 -4 17 -22 0 -22 -4 -25 -35 -25 l-35 0 -3 55 c-3 43 1 57 14 67
21 16 21 16 45 3z m-1551 -64 l0 -63 -55 0 -55 0 0 63 0 63 55 0 55 0 0 -63z
m398 0 c-3 -55 -5 -61 -26 -64 -38 -6 -52 15 -52 74 l0 53 40 -1 41 0 -3 -62z
m762 -1 c0 -51 -3 -65 -15 -65 -12 0 -15 14 -15 65 0 51 3 65 15 65 12 0 15
-14 15 -65z"/>
<path d="M2051 1204 c-15 -19 -21 -41 -21 -79 0 -71 26 -105 80 -105 54 0 80
34 80 105 0 71 -26 105 -80 105 -30 0 -43 -6 -59 -26z"/>
<path d="M3845 1058 c15 -51 62 -62 100 -23 38 37 32 45 -41 45 -63 0 -65 -1
-59 -22z"/>
<path d="M4191 1204 c-16 -20 -21 -41 -21 -86 0 -50 4 -63 26 -85 20 -20 31
-24 56 -19 52 10 58 21 58 109 0 90 -10 106 -67 107 -22 0 -37 -8 -52 -26z"/>
<path d="M4527 1212 c-30 -33 -21 -42 43 -42 62 0 68 5 50 41 -14 25 -71 26
-93 1z"/>
</g>
</svg>
